<?xml version="1.0" standalone="no"?>
<!DOCTYPE svg PUBLIC "-//W3C//DTD SVG 20010904//EN"
 "http://www.w3.org/TR/2001/REC-SVG-20010904/DTD/svg10.dtd">
<svg version="1.0" xmlns="http://www.w3.org/2000/svg"
 width="700.000000pt" height="700.000000pt" viewBox="0 0 700.000000 700.000000"
 preserveAspectRatio="xMidYMid meet">
<metadata>
Created by potrace 1.14, written by Peter Selinger 2001-2017
</metadata>
<g transform="translate(0.000000,700.000000) scale(0.100000,-0.100000)"
fill="#000000" stroke="none">
<path d="M5249 5916 c-2 -2 -29 -6 -59 -10 -281 -32 -529 -128 -735 -285 -126
-96 -234 -218 -497 -562 -263 -345 -498 -514 -853 -612 -71 -20 -141 -38 -155
-41 -14 -3 -70 -14 -125 -24 -114 -23 -141 -27 -281 -47 -92 -13 -125 -17
-259 -30 -22 -2 -87 -5 -144 -5 l-105 -2 -115 60 c-234 120 -593 351 -901 580
-47 35 -95 71 -108 80 -13 9 -75 57 -139 105 -63 49 -117 86 -119 84 -3 -2 0
-26 6 -53 7 -27 13 -58 16 -69 2 -11 6 -33 10 -50 9 -48 73 -264 100 -340 48
-134 133 -318 196 -420 10 -16 18 -33 18 -37 0 -11 -281 73 -357 108 -17 8
-33 14 -36 14 -3 0 -54 23 -113 51 -144 67 -268 141 -389 232 -55 41 -101 74
-102 73 -2 -2 33 -221 41 -261 2 -11 12 -56 21 -100 9 -44 23 -107 31 -140 8
-33 17 -69 19 -80 3 -10 21 -80 41 -155 121 -451 302 -902 513 -1280 128 -229
312 -491 470 -669 211 -238 474 -457 713 -594 59 -34 249 -129 303 -152 140
-58 355 -122 525 -154 105 -21 121 -23 260 -38 97 -10 491 -10 595 0 384 38
655 109 934 244 112 54 255 138 321 190 309 240 531 537 695 928 25 61 50 119
55 130 23 49 114 339 170 540 108 387 144 499 196 613 88 193 262 368 457 461
161 77 312 108 510 107 70 -1 127 -1 127 1 0 1 -16 55 -36 120 -98 325 -249
634 -428 872 -76 102 -221 255 -301 317 -27 21 -52 41 -55 44 -3 3 -34 24 -70
47 -155 99 -341 170 -515 197 -78 12 -337 20 -346 12z m424 -690 c70 -20 129
-78 157 -153 72 -192 -104 -379 -305 -324 -54 14 -135 75 -135 100 0 6 -4 11
-10 11 -5 0 -10 8 -10 18 0 10 -5 23 -11 29 -6 6 -11 39 -12 74 -1 106 50 190
141 232 61 28 119 32 185 13z"/>
</g>
</svg>
